<svg width="69" height="59" viewBox="0 0 69 59" fill="none" xmlns="http://www.w3.org/2000/svg">
<path d="M62.4491 6.03921C60.8222 4.44164 58.8905 3.17432 56.7644 2.30968C54.6383 1.44503 52.3595 1 50.0582 1C47.7568 1 45.478 1.44503 43.3519 2.30968C41.2258 3.17432 39.2942 4.44164 37.6672 6.03921L34.2908 9.3532L30.9143 6.03921C27.6281 2.81373 23.1709 1.00167 18.5234 1.00167C13.8759 1.00167 9.41877 2.81373 6.13249 6.03921C2.84621 9.2647 1 13.6394 1 18.2009C1 22.7624 2.84621 27.1371 6.13249 30.3626L9.50894 33.6766L34.2908 58L59.0726 33.6766L62.4491 30.3626C64.0768 28.7658 65.368 26.8698 66.2489 24.7831C67.1299 22.6964 67.5833 20.4597 67.5833 18.2009C67.5833 15.9421 67.1299 13.7055 66.2489 11.6187C65.368 9.53198 64.0768 7.63604 62.4491 6.03921Z" fill="#D72121" stroke="#D72121" stroke-width="2" stroke-linecap="round" stroke-linejoin="round"/>
</svg>
